<?xml version="1.0" encoding="utf-8"?>
<!-- Generator: Adobe Illustrator 27.7.0, SVG Export Plug-In . SVG Version: 6.00 Build 0)  -->
<svg version="1.1" id="Layer_1" xmlns="http://www.w3.org/2000/svg" xmlns:xlink="http://www.w3.org/1999/xlink" x="0px" y="0px"
	 viewBox="0 0 350 128.5" style="enable-background:new 0 0 350 128.5;" xml:space="preserve">
<style type="text/css">
	.st0{fill:#004165;}
</style>
<g>
	<path class="st0" d="M63.3,4.6C30.4,4.6,3.8,31.2,3.8,64.1s26.7,59.5,59.5,59.5s59.5-26.7,59.5-59.5C122.8,31.2,96.2,4.6,63.3,4.6z
		 M51.3,54.9c-0.1,1.2-0.5,2.1-1.3,2.8c-0.8,0.7-1.7,1.1-2.8,1.1c-0.4,0-1.4-0.4-3.2-1.2c-1.8-0.8-3.1-1.1-3.9-1.1
		c-0.7,0-1.3,0.1-1.8,0.5c-0.5,0.3-0.8,0.8-0.8,1.4c-0.1,0.9,1.3,1.8,4.1,2.9c2.8,1,5.1,2.2,6.8,3.6c1.8,1.3,2.5,3.4,2.2,6.3
		c-0.3,3.1-1.6,5.7-4.1,7.5c-2.4,1.8-5.3,2.8-8.5,2.8c-3.2,0-5.9-0.6-8.3-1.7c-2.4-1.2-3.5-2.7-3.3-4.6c0.1-1.3,0.6-2.3,1.4-3.2
		c0.8-0.8,1.7-1.3,2.7-1.3c0.6,0,1.9,0.4,3.9,1.3c2,0.9,3.5,1.3,4.6,1.3c0.9,0,1.6-0.1,2-0.5c0.4-0.4,0.7-0.8,0.8-1.3
		c0-0.7-0.2-1.2-0.7-1.6c-2-0.9-4.1-1.8-6.3-2.7c-2.2-1-3.9-2.1-4.9-3.2c-1-1.2-1.4-2.9-1.2-5.2c0.3-2.8,1.6-5.2,3.9-7.3
		c2.3-2.1,5.3-3.1,8.8-3.1c2.4,0,4.6,0.6,6.9,1.7C50.5,51.2,51.5,52.8,51.3,54.9z M101.6,53c0,0.7-0.1,1.2-0.4,1.7
		c-0.2,0.5-0.7,1.7-1.6,3.6l-8.3,18.5c-0.7,1.6-1.5,2.8-2.5,3.6c-0.9,0.7-2.2,1.1-3.8,1.1c-1.6,0-2.8-0.4-3.5-1.2
		c-0.7-0.8-1.3-2-1.7-3.8l-2.7-11.2l-4.8,11.2c-0.8,1.8-1.6,3.1-2.4,3.8c-0.8,0.8-2.1,1.2-3.7,1.2c-1.6,0-2.7-0.4-3.6-1.1
		c-0.8-0.7-1.5-1.9-1.9-3.6l-5-18.5c-0.5-1.8-0.8-2.9-0.9-3.4c-0.1-0.5-0.1-1.1-0.1-1.9c0.1-1.3,0.7-2.4,1.5-3.2
		c0.9-0.9,2.1-1.3,3.7-1.3c2.3,0,3.7,1.1,4.2,3.3l3.2,15.3l5.6-13.3c0.7-1.8,1.5-3.2,2.2-4.1c0.7-0.9,1.8-1.3,3.4-1.3
		c1.5,0,2.5,0.4,3.1,1.4c0.6,0.9,1.1,2.3,1.5,4l3,13.3l6.1-15.3c0.8-2.2,2.4-3.3,4.8-3.3c1.5,0,2.6,0.4,3.4,1.3
		C101.4,50.6,101.7,51.7,101.6,53z"/>
	<path class="st0" d="M145.4,32.1c0.5-0.3,1.1-0.5,1.9-0.5c0,0,0,0,0,0c0.7,0,1.9,0.3,4.4,1.2c3.1,1.2,5.5,1.5,7.2,0.1
		c1-0.9,1.4-2,1.6-3.4c0.2-2.5-1-4.5-3.6-5.8c-2.6-1.3-5.3-2-8-2c0,0,0,0,0,0c-4.1,0-7.6,1.2-10.2,3.7c-2.7,2.4-4.2,5.3-4.5,8.5
		c-0.2,2.7,0.2,4.8,1.5,6.2c1.2,1.4,3.1,2.6,5.7,3.8c1.9,0.8,3.8,1.6,5.6,2.4l1.6,0.7c0.6,0.4,0.8,0.9,0.7,1.6
		c-0.1,0.6-0.3,1-0.8,1.4c-0.4,0.3-1.1,0.5-2.2,0.5c-1.3,0-3.1-0.5-5.2-1.5c-2.3-1-3.8-1.5-4.6-1.5l0,0c-1.3,0-2.4,0.5-3.3,1.5
		c-1,1-1.5,2.3-1.6,3.8c-0.2,2.3,1.1,4.1,3.9,5.5c2.8,1.3,5.9,2,9.6,2c0,0,0,0,0,0c3.8,0,7.1-1.1,9.9-3.2c2.8-2.1,4.4-5.1,4.8-8.8
		c0.3-3.4-0.6-5.9-2.7-7.5c-2-1.5-4.7-2.9-7.9-4.1c-4.1-1.5-4.6-2.6-4.5-3.1C144.6,32.9,144.9,32.5,145.4,32.1z"/>
	<path class="st0" d="M228.7,68.3c-0.9-1-2.3-1.5-4.1-1.5h0c-2.8,0-4.7,1.3-5.7,4l-6.8,17l-3.3-14.6c-0.5-2-1.1-3.5-1.7-4.7
		c-0.7-1.1-2-1.7-3.8-1.7h0c-1.9,0-3.2,0.5-4,1.6c-0.9,1.1-1.7,2.6-2.6,4.7l-6.1,14.6l-3.5-16.9c-0.5-2.7-2.2-4-5-4h0
		c-1.8,0-3.3,0.5-4.4,1.5c-1.1,1.1-1.7,2.3-1.8,3.9c-0.1,1,0,1.7,0.1,2.2c0.1,0.6,0.5,1.8,1,3.9l5.7,21.3c0.4,1.8,1.2,3.3,2.2,4.2
		c1,0.9,2.4,1.3,4.2,1.3c0,0,0,0,0,0c1.9,0,3.4-0.5,4.4-1.4c0.9-0.9,1.9-2.4,2.8-4.5l5.3-12.2l2.9,12.2c0.5,2.1,1.2,3.6,2,4.5
		c0.8,0.9,2.2,1.4,4.1,1.4c0,0,0,0,0,0c1.9,0,3.4-0.4,4.5-1.3c1.1-0.9,2.1-2.3,2.9-4.2l9.5-21.3c0.9-1.9,1.5-3.5,1.8-4.2
		c0.2-0.6,0.4-1.2,0.4-2C230,70.7,229.6,69.4,228.7,68.3z"/>
	<path class="st0" d="M267.2,73.3c0.1-1.5,0.8-2.9,1.8-3.9c1.1-1.1,2.4-1.6,4-1.7c1.3,0,2.4,0.3,3.2,0.9c0.9,0.7,1.4,1.5,1.7,2.4
		c1.2-1.2,2.4-2.2,3.7-3c1.3-0.8,2.6-1.2,4.1-1.2c1.4,0,2.6,0.5,3.6,1.6c1,1,1.4,2.3,1.3,3.9c-0.2,1.7-0.8,2.9-1.8,3.7
		c-1.1,0.7-2.9,1.4-5.4,2.2c-2.5,0.8-4.2,1.7-5.1,2.7c-0.9,1-1.5,2.8-1.8,5.5l-1.3,12.9c-0.1,1.6-0.8,2.9-1.8,3.9
		c-1,1.1-2.4,1.6-4,1.6c-1.5,0.1-2.8-0.5-3.7-1.5c-0.9-1-1.2-2.4-1.1-4L267.2,73.3z"/>
	<path class="st0" d="M300.2,105.1c-1.3,0-2.7-0.5-4.2-1.6c-4.1-3.2-5.8-8.5-5.2-13.9L295,57c0.4-3.8,3.4-5.7,6.2-5.7
		c2.9,0,5.5,1.9,5.1,5.7l-4.1,32.7c-0.2,2.1,0.2,3.7,1.3,4.3c2.2,1.2,2.9,3.2,2.7,5.2c-0.1,1.1-0.5,2.2-1.1,3.1
		C304,103.8,302.3,105.1,300.2,105.1"/>
	<path class="st0" d="M165.2,28.5c0.1-1.6,0.8-2.9,1.9-4c1.1-1.1,2.4-1.6,4-1.6c1.3,0,2.4,0.3,3.3,1c0.9,0.7,1.5,1.5,1.8,2.5
		c1-1.3,2.3-2.4,4-3.1c1.7-0.7,3.5-1,5.6-1c1.8,0,3.6,0.3,5.3,1c1.8,0.7,3.2,1.8,4.2,3.4c1.9-1.3,3.2-2.4,4.8-3.2
		c1.6-0.8,4-1.2,6-1.2c3.9,0,7,1,9.3,3.2c2.3,2.2,3.2,5.3,2.9,9.5l-1.8,19.9c-0.1,1.6-0.8,2.9-1.9,4c-1.1,1.1-2.4,1.6-4,1.6
		c-1.6,0-2.8-0.5-3.7-1.6c-0.9-1.1-1.3-2.4-1.2-4l1.5-17c0.1-1.8-0.2-3.3-1.1-4.5c-0.8-1.3-2.1-1.9-3.7-1.9c-1.7,0-3.1,0.6-4.1,1.9
		c-1.1,1.2-1.6,2.8-1.8,4.6l-1.5,17c-0.2,1.6-0.8,2.9-1.8,4c-1.1,1.1-2.4,1.6-4,1.6c-1.6,0-2.8-0.5-3.7-1.6c-0.9-1.1-1.3-2.4-1.2-4
		l1.5-17c0.2-1.8-0.2-3.3-1-4.5c-0.9-1.3-2.1-1.9-3.7-1.9c-1.7,0-3.1,0.6-4.1,1.9c-1.1,1.2-1.7,2.8-1.8,4.6l-1.5,17
		c-0.1,1.6-0.8,2.9-1.8,4c-1.1,1.1-2.4,1.6-4,1.6c-1.6,0-2.8-0.5-3.7-1.6c-0.9-1.1-1.3-2.4-1.2-4L165.2,28.5z"/>
	<path class="st0" d="M268.9,60.2c-1.3,0-2.7-0.5-4.2-1.6c-4.1-3.2-5.8-8.5-5.2-13.9l4.2-32.7c0.4-3.8,3.4-5.7,6.2-5.7
		c2.9,0,5.5,1.9,5.1,5.7l-4.1,32.7c-0.2,2.1,0.2,3.7,1.3,4.3c2.2,1.2,2.9,3.2,2.7,5.2c-0.1,1.1-0.5,2.2-1.1,3.1
		C272.7,59,271,60.2,268.9,60.2"/>
	<path class="st0" d="M285.8,60.2c-1.3,0-2.7-0.5-4.2-1.6c-4.1-3.2-5.8-8.5-5.2-13.9l4.2-32.7c0.4-3.8,3.4-5.7,6.2-5.7
		c2.9,0,5.5,1.9,5.1,5.7l-4.1,32.7c-0.2,2.1,0.2,3.7,1.3,4.3c2.2,1.2,2.9,3.2,2.7,5.2c-0.1,1.1-0.5,2.2-1.1,3.1
		C289.6,59,287.9,60.2,285.8,60.2"/>
	<path class="st0" d="M253.1,22.2c-2.5,0.1-4.3,1.2-5.8,3.6c-2.3-2.5-4.4-3.4-7.9-3.2c-11.4,0.5-19.6,10.8-19,23.7
		c0.4,8.3,6.3,14.2,14,13.8c3.8-0.2,6.7-1.3,8.9-3.7c0.5,2.2,2.5,3.8,4.7,3.7c3.5-0.2,6.1-2.8,6.8-6.9l3.2-25.3
		c0.1-0.6,0.1-1,0.1-1.4C257.9,24,255.7,22.1,253.1,22.2z M239.1,33.5c3-0.1,5,1.8,5.2,5c0.3,5.9-2.6,11.3-7.2,11.5
		c-3.1,0.1-4.9-1.7-5.1-5.2C231.7,39,234.5,33.7,239.1,33.5z"/>
	<g>
		<path class="st0" d="M234.5,121.2c-0.1,0.6-0.1,0.7-0.3,1c-0.2,0.3-0.6,0.4-0.9,0.4c-0.7,0-1.2-0.5-1.2-1.2c0-0.1,0-0.3,0.1-0.6
			l1.2-7.6c0.1-0.9,0.7-1.4,1.6-1.4c0.7,0,1.3,0.4,1.5,1l1.8,5.4l1.6-5.2c0.2-0.8,0.9-1.2,1.6-1.2c0.8,0,1.5,0.5,1.6,1.2l1.3,7.7
			c0.1,0.4,0.1,0.4,0.1,0.6c0,0.7-0.5,1.2-1.2,1.2c-0.4,0-0.8-0.2-0.9-0.4c-0.2-0.2-0.2-0.4-0.3-1l-0.8-4.9l-1.5,4.9
			c-0.2,0.7-0.3,0.9-0.5,1.1c-0.2,0.2-0.5,0.3-0.9,0.3c-0.7,0-1.1-0.3-1.3-1.1l-1.7-5.2L234.5,121.2z"/>
		<path class="st0" d="M251.9,115.6c0.7,0.7,1,1.8,1,2.9c0,2.4-1.6,4.1-3.8,4.1c-1.1,0-2.1-0.5-2.8-1.2c-0.7-0.8-1-1.7-1-2.9
			c0-2.3,1.7-4.1,3.9-4.1C250.1,114.3,251.2,114.8,251.9,115.6z M247.5,118.4c0,1.2,0.7,2,1.5,2c0.9,0,1.6-0.9,1.6-2
			c0-1.1-0.7-2-1.6-2C248.2,116.5,247.5,117.3,247.5,118.4z"/>
		<path class="st0" d="M254.2,115.7c0-0.8,0.5-1.4,1.2-1.4c0.5,0,0.9,0.2,1.1,0.8c0.7-0.6,1.2-0.9,2.1-0.9c0.8,0,1.5,0.2,2,0.7
			c0.6,0.6,0.8,1.1,0.8,2.2v3.8c0,0.6,0,0.7-0.2,1c-0.2,0.3-0.6,0.6-1,0.6c-0.4,0-0.8-0.2-1-0.6c-0.1-0.3-0.2-0.4-0.2-1v-3.2
			c0-0.9-0.5-1.5-1.3-1.5c-0.7,0-1.3,0.6-1.3,1.4v3.3c0,0.6,0,0.7-0.2,1c-0.2,0.3-0.6,0.6-1,0.6c-0.4,0-0.8-0.2-1-0.6
			c-0.1-0.3-0.2-0.4-0.2-1V115.7z"/>
		<path class="st0" d="M265.2,119.2c0.3,0.9,0.9,1.4,1.8,1.4c0.5,0,0.7-0.1,1.9-0.6c0.1-0.1,0.3-0.1,0.5-0.1c0.5,0,0.9,0.5,0.9,0.9
			c0,0.9-1.7,1.8-3.5,1.8c-2.5,0-4.2-1.7-4.2-4c0-2.4,1.7-4.2,4-4.2c2.1,0,3.8,1.7,3.8,4c0,0.6-0.3,0.9-1,0.9L265.2,119.2
			L265.2,119.2z M268.2,117.6c-0.1-0.4-0.2-0.6-0.3-0.9c-0.3-0.4-0.7-0.6-1.2-0.6c-0.8,0-1.3,0.4-1.6,1.4L268.2,117.6L268.2,117.6z"
			/>
		<path class="st0" d="M276,115.5c0.3-0.8,0.6-1.1,1.2-1.1c0.6,0,1.2,0.5,1.2,1.1c0,0.3,0,0.4-0.2,0.9l-3.5,8.4
			c-0.3,0.8-0.6,1.1-1.2,1.1c-0.6,0-1.1-0.5-1.1-1.1c0-0.3,0-0.4,0.2-0.9l0.9-2.1l-2.3-5.4c-0.2-0.5-0.2-0.6-0.2-0.9
			c0-0.6,0.5-1.1,1.2-1.1c0.6,0,0.9,0.3,1.2,1.1l1.4,3.4L276,115.5z"/>
		<path class="st0" d="M288.2,121c0,0.6,0,0.7-0.2,1c-0.2,0.3-0.6,0.6-1,0.6c-0.4,0-0.9-0.2-1-0.6c-0.1-0.3-0.2-0.4-0.2-1v-6.9h-1.2
			c-0.5,0-0.6,0-0.9-0.1c-0.3-0.2-0.5-0.6-0.5-0.9c0-0.4,0.2-0.8,0.5-0.9c0.2-0.1,0.4-0.1,0.9-0.1h4.7c0.5,0,0.6,0,0.9,0.1
			c0.3,0.2,0.5,0.6,0.5,0.9c0,0.4-0.2,0.8-0.5,0.9c-0.2,0.1-0.4,0.1-0.9,0.1h-1.1L288.2,121L288.2,121z"/>
		<path class="st0" d="M291,115.7c0-0.8,0.5-1.3,1.2-1.3c0.5,0,0.9,0.3,1.1,0.8c0.6-0.6,1-0.9,1.6-0.9c0.7,0,1.2,0.5,1.2,1.2
			c0,0.6-0.2,0.8-1.2,1.1c-1.2,0.4-1.6,0.8-1.6,1.5v2.9c0,0.6,0,0.7-0.2,1c-0.2,0.3-0.6,0.6-1,0.6c-0.4,0-0.8-0.2-1-0.6
			c-0.1-0.3-0.2-0.4-0.2-1L291,115.7L291,115.7z"/>
		<path class="st0" d="M304.2,121.2c0,0.8-0.5,1.4-1.2,1.4c-0.5,0-0.9-0.3-1.2-0.9c-0.6,0.7-1,1-1.9,1s-1.6-0.3-2.3-0.9
			c-0.9-0.8-1.4-1.9-1.4-3.3c0-1.3,0.4-2.2,1.2-3c0.7-0.7,1.5-1.1,2.4-1.1c0.8,0,1.3,0.2,2,0.9c0.2-0.6,0.6-0.9,1.1-0.9
			c0.6,0,1.1,0.5,1.1,1.2L304.2,121.2L304.2,121.2z M298.7,118.4c0,1.2,0.6,2,1.6,2c0.9,0,1.6-0.8,1.6-2c0-1.2-0.6-2-1.6-2
			C299.3,116.5,298.7,117.3,298.7,118.4z"/>
		<path class="st0" d="M305.9,115.7c0-0.8,0.5-1.4,1.2-1.4c0.5,0,0.9,0.2,1.1,0.8c0.7-0.6,1.2-0.9,2.1-0.9c0.8,0,1.5,0.2,2,0.7
			c0.6,0.6,0.8,1.1,0.8,2.2v3.8c0,0.6,0,0.7-0.2,1c-0.2,0.3-0.6,0.6-1,0.6c-0.4,0-0.8-0.2-1-0.6c-0.1-0.3-0.2-0.4-0.2-1v-3.2
			c0-0.9-0.5-1.5-1.3-1.5c-0.7,0-1.3,0.6-1.3,1.4v3.3c0,0.6,0,0.7-0.2,1c-0.2,0.3-0.6,0.6-1,0.6c-0.4,0-0.8-0.2-1-0.6
			c-0.1-0.3-0.2-0.4-0.2-1V115.7z"/>
		<path class="st0" d="M320.4,115.9c0,0.5-0.4,1-0.9,1c-0.2,0-0.3,0-1-0.3c-0.3-0.2-0.6-0.2-0.9-0.2c-0.4,0-0.6,0.2-0.6,0.4
			c0,0.3,0.1,0.4,1.2,0.8c1,0.4,1.4,0.6,1.8,1c0.4,0.4,0.6,0.9,0.6,1.4c0,1.5-1.2,2.6-3,2.6c-1.6,0-3-0.8-3-1.7c0-0.5,0.5-1,1-1
			c0.3,0,0.3,0,1.2,0.4c0.4,0.2,0.7,0.2,0.9,0.2c0.4,0,0.7-0.2,0.7-0.5c0-0.3-0.2-0.4-0.9-0.7c-1.1-0.4-1.5-0.6-1.9-0.9
			c-0.5-0.4-0.8-0.9-0.8-1.7c0-1.4,1.3-2.5,3-2.5C319.2,114.3,320.4,115.1,320.4,115.9z"/>
		<path class="st0" d="M325.1,121c0,0.6,0,0.7-0.2,1c-0.2,0.3-0.6,0.6-1,0.6c-0.4,0-0.8-0.2-1-0.6c-0.1-0.3-0.2-0.4-0.2-1v-4.4h-0.1
			c-0.5,0-0.6,0-0.9-0.1c-0.3-0.2-0.5-0.5-0.5-0.9s0.2-0.8,0.5-0.9c0.2-0.1,0.4-0.1,0.9-0.1h0.1v-1.1c0-1.4,1-2.4,2.5-2.4
			c0.9,0,1.3,0.4,1.3,1.1c0,0.6-0.3,1-0.9,1c-0.5,0-0.6,0.2-0.6,0.6v0.8h0.4c0.5,0,0.6,0,0.9,0.1c0.3,0.2,0.5,0.5,0.5,0.9
			s-0.2,0.8-0.5,0.9c-0.2,0.1-0.4,0.1-0.9,0.1h-0.4L325.1,121L325.1,121z"/>
		<path class="st0" d="M329.7,119.2c0.3,0.9,0.9,1.4,1.8,1.4c0.5,0,0.7-0.1,1.9-0.6c0.1-0.1,0.3-0.1,0.5-0.1c0.5,0,0.9,0.5,0.9,0.9
			c0,0.9-1.7,1.8-3.5,1.8c-2.5,0-4.2-1.7-4.2-4c0-2.4,1.7-4.2,4-4.2c2.1,0,3.8,1.7,3.8,4c0,0.6-0.3,0.9-1,0.9L329.7,119.2
			L329.7,119.2z M332.7,117.6c-0.1-0.4-0.2-0.6-0.3-0.9c-0.3-0.4-0.7-0.6-1.2-0.6c-0.8,0-1.3,0.4-1.6,1.4L332.7,117.6L332.7,117.6z"
			/>
		<path class="st0" d="M336.3,115.7c0-0.8,0.5-1.3,1.2-1.3c0.5,0,0.9,0.3,1.1,0.8c0.6-0.6,1-0.9,1.6-0.9c0.7,0,1.2,0.5,1.2,1.2
			c0,0.6-0.2,0.8-1.2,1.1c-1.2,0.4-1.6,0.8-1.6,1.5v2.9c0,0.6,0,0.7-0.2,1c-0.2,0.3-0.6,0.6-1,0.6c-0.4,0-0.8-0.2-1-0.6
			c-0.1-0.3-0.2-0.4-0.2-1L336.3,115.7L336.3,115.7z"/>
	</g>
	<path class="st0" d="M261.7,77.1c-2.2-7.8-10.4-11.7-17.8-9.6c-5.7,1.6-10.1,5.7-12.4,11c-2.2,5-2.6,11.1-1.2,16.3
		c2.1,7.8,10.4,12,17.8,10c5.7-1.6,10-6.1,12.4-11.4C262.6,88.3,263.1,82.1,261.7,77.1z M245.2,94.1c-3.1,0.1-4.9-1.7-5.1-5.2
		c-0.3-5.8,2.5-11.1,7.1-11.3c3-0.1,5,1.8,5.2,5C252.6,88.5,249.8,93.9,245.2,94.1z"/>
	<path class="st0" d="M341,52c-2.1,0-4.4,1.1-5.6,2.8c-0.8,1.2-1.4,1.9-1.6,4.6l-1.2,10.4c-2.2-1.8-3.8-2.6-6.6-2.6
		c-4.8,0-9.2,3-12,6.1c-4.2,4.8-6.1,10.9-6.1,16.8c0,8.9,5.2,15.1,12.6,15.1c3.8,0,6.6-1.1,9.4-3.6c0.7,2.4,2,3.4,4.6,3.4
		c3.5,0,5.9-2.3,6.8-6.4l4-38.9c0.2-1.4,0.2-2.1,0.2-3C345.6,54,343.7,52,341,52z M323.8,94.1c-3.1,0.1-4.9-1.7-5.1-5.2
		c-0.3-5.8,2.5-11.1,7.1-11.3c3-0.1,5,1.8,5.2,5C331.3,88.5,328.5,93.9,323.8,94.1z"/>
</g>
</svg>
